<?xml version="1.0" encoding="utf-8" ?>
<svg xmlns="http://www.w3.org/2000/svg" xmlns:xlink="http://www.w3.org/1999/xlink" width="256" height="256">
	<clipPath id="cl_7">
		<rect width="256" height="256"/>
	</clipPath>
	<g clip-path="url(#cl_7)">
		<clipPath id="cl_8">
			<rect y="-65" width="256" height="321"/>
		</clipPath>
		<g clip-path="url(#cl_8)">
			<clipPath id="cl_9">
				<rect x="7.4491653" y="-65" width="241.10168" height="321"/>
			</clipPath>
			<g clip-path="url(#cl_9)">
				<clipPath id="cl_a">
					<rect x="7.4491653" y="-65" width="241.10168" height="321"/>
				</clipPath>
				<g clip-path="url(#cl_a)">
					<path transform="matrix(16.3792 0 0 16.3792 23.8284 -48.6208)" d="M3.5 17.0504Q2.21143 17.0504 1.4834 16.5309Q0.755371 16.0148 0.755371 15.1774Q0.755371 14.7296 1.02881 14.2955Q1.30225 13.8614 1.76367 13.5231L1.76367 13.4684Q1.51074 13.3146 1.34326 13.048Q1.17578 12.7814 1.17578 12.4054Q1.17578 11.9406 1.43555 11.6329Q1.69531 11.3253 1.90381 11.1715L1.90381 11.1168Q1.58252 10.8365 1.32275 10.3614Q1.06299 9.88293 1.06299 9.2677Q1.06299 8.76526 1.2373 8.33801Q1.41504 7.91077 1.72949 7.59631Q2.04395 7.27844 2.45752 7.09729Q2.87109 6.91614 3.35986 6.91614Q3.64014 6.91614 3.85547 6.96741Q4.07422 7.01526 4.22803 7.08362L6.4668 7.08362L6.4668 7.47668L4.84326 7.47668Q5.20898 7.77063 5.43115 8.23205Q5.65674 8.69348 5.65674 9.2677Q5.65674 9.77356 5.479 10.2076Q5.30469 10.6383 4.99023 10.963Q4.67578 11.2843 4.25537 11.4655Q3.83496 11.6466 3.35986 11.6466Q3.06592 11.6466 2.7583 11.5714Q2.45068 11.4928 2.21143 11.339Q1.97559 11.5372 1.79785 11.7765Q1.62354 12.0123 1.62354 12.3746Q1.62354 12.5729 1.68506 12.7404Q1.75 12.9078 1.89697 13.0343Q2.04395 13.1608 2.29346 13.2325Q2.54639 13.3009 2.93945 13.3009L4.42285 13.3009Q5.54395 13.3009 6.06006 13.6666Q6.57959 14.0289 6.57959 14.8116Q6.57959 15.2321 6.36084 15.6388Q6.14551 16.0455 5.74561 16.36Q5.34912 16.6744 4.7749 16.8624Q4.20068 17.0504 3.5 17.0504ZM3.35986 11.257Q3.72559 11.257 4.06055 11.11Q4.39551 10.963 4.64844 10.7032Q4.90137 10.4435 5.05518 10.0812Q5.20898 9.71545 5.20898 9.2677Q5.20898 8.81995 5.06201 8.45764Q4.91504 8.09192 4.66211 7.84241Q4.40918 7.58948 4.07422 7.44934Q3.73926 7.3092 3.35986 7.3092Q2.98047 7.3092 2.64551 7.44934Q2.31055 7.58948 2.05762 7.84241Q1.80469 8.09192 1.65771 8.45764Q1.51074 8.81995 1.51074 9.2677Q1.51074 9.71545 1.66455 10.0812Q1.81836 10.4435 2.07129 10.7032Q2.32422 10.963 2.65918 11.11Q2.99756 11.257 3.35986 11.257ZM3.52734 16.6608Q4.12891 16.6608 4.61084 16.5001Q5.09619 16.3395 5.43115 16.0865Q5.76953 15.8336 5.95068 15.5055Q6.13184 15.1774 6.13184 14.839Q6.13184 14.2511 5.71826 13.9982Q5.30469 13.7487 4.5083 13.7487L2.9668 13.7487Q2.89844 13.7487 2.66602 13.7281Q2.43701 13.7076 2.15674 13.6359Q1.65088 13.9708 1.42529 14.3707Q1.20312 14.7706 1.20312 15.1466Q1.20312 15.8199 1.80469 16.2404Q2.40967 16.6608 3.52734 16.6608Z"/>
					<path transform="matrix(16.3792 0 0 16.3792 23.8284 -48.6208)" d="M10.3054 13.9435Q9.65942 13.9435 9.20483 13.7487Q8.75024 13.5504 8.46313 13.2018Q8.17603 12.8531 8.04272 12.3575Q7.90942 11.8585 7.90942 11.257L7.90942 8.44055L6.95923 8.44055L6.95923 6.91614L8.02222 6.83069L8.26147 4.98498L9.96704 4.98498L9.96704 6.83069L11.635 6.83069L11.635 8.44055L9.96704 8.44055L9.96704 11.2296Q9.96704 11.8175 10.2131 12.0773Q10.4592 12.3336 10.8625 12.3336Q11.0334 12.3336 11.2078 12.2926Q11.3821 12.2516 11.5222 12.1935L11.8435 13.6906Q11.5632 13.776 11.1838 13.858Q10.8079 13.9435 10.3054 13.9435Z"/>
				</g>
			</g>
		</g>
	</g>
</svg>
